<?xml version="1.0" encoding="utf-8"?>
<!-- Generator: Adobe Illustrator 24.1.1, SVG Export Plug-In . SVG Version: 6.00 Build 0)  -->
<svg version="1.1" id="Layer_1" xmlns="http://www.w3.org/2000/svg" xmlns:xlink="http://www.w3.org/1999/xlink" x="0px" y="0px"
	 viewBox="0 0 171 40" style="enable-background:new 0 0 171 40;" xml:space="preserve">
<style type="text/css">
	.st0{fill:#FFFFFF;}
</style>
<g>
	<path class="st0" d="M20,26.6c-3.6,0-6.6-3-6.6-6.6c0-3.6,3-6.6,6.6-6.6v3.1c-1.9,0-3.5,1.6-3.5,3.5c0,1.9,1.6,3.5,3.5,3.5
		c1.9,0,3.5-1.6,3.5-3.5h3.1C26.6,23.6,23.6,26.6,20,26.6 M33.3,20h-3.1c0,5.6-4.6,10.2-10.2,10.2S9.8,25.6,9.8,20
		c0-5.6,4.6-10.2,10.2-10.2V6.7c-7.3,0-13.3,6-13.3,13.3c0,7.3,6,13.3,13.3,13.3C27.3,33.3,33.3,27.3,33.3,20z M40,20h-3.1
		c0,9.3-7.6,16.9-16.9,16.9S3.1,29.3,3.1,20c0-9.3,7.6-16.9,16.9-16.9V0C9,0,0,9,0,20s9,20,20,20C31,40,40,31,40,20z M29.6,13.9
		l9-5.3l-1.3-2.2l-8.9,5.2l5.1-8.9l-2.3-1.3l-5.1,8.9V0h-2.6v16.5h1.3h1.3H40v-2.6H29.6z"/>
	<path class="st0" d="M120.4,30.7l2.5,3.9h3.1v0l-2.7-4v-0.3l0.1,0c1.4-0.6,2.2-1.9,2.2-3.5c0-2.3-1.8-3.9-4.5-3.9h-5.2v11.8h2.7
		v-3.9L120.4,30.7L120.4,30.7z M118.5,25.1h2.3c1.2,0,1.9,0.6,1.9,1.7c0,1-0.8,1.7-1.9,1.7h-2.3V25.1z M84.7,5.8v4.9h5.2V5.8h2.7
		v11.8h-2.7v-4.9h-5.2v4.9H82V5.8H84.7z M106.9,25.1v2.5h4.9v2h-4.9v2.7h5.8v2.3h-8.5V22.8h8.5v2.3H106.9z M137.5,31
		c0,2.8-2.3,3.9-4.5,3.9c-2.8,0-4.5-1.2-4.9-1.5l1.4-2c0.4,0.2,1.9,1.1,3.3,1.1c0.9,0,1.4-0.4,1.4-1.1c0-0.7-0.5-1.1-2.1-1.6
		c-2.8-0.8-3.9-1.8-3.9-3.6c0-2.3,1.6-3.6,4.5-3.6c2.7,0,4.1,0.9,4.4,1.2l-1.4,2.2c-0.3-0.2-1.5-0.9-2.9-0.9c-1.2,0-1.4,0.5-1.4,1
		c0,0.7,0.6,1,2,1.4C136.3,28.1,137.5,29.2,137.5,31 M140.5,22.8h2.7v11.8h-2.7V22.8z M169,34.6l-5.9-7.2v7.2h-2.6V22.8h2.1l5.9,7.1
		v-7.1h2.6v11.8H169z M151.8,22.5c-3.4,0-6,2.6-6,6.1c0,3.5,2.6,6.2,6,6.2c3.5,0,6.1-2.6,6.1-6.2C157.8,25.2,155.2,22.5,151.8,22.5
		 M151.8,32.3c-1.9,0-3.3-1.5-3.3-3.6c0-2.1,1.4-3.6,3.3-3.6c1.9,0,3.3,1.5,3.3,3.6C155.1,30.8,153.7,32.3,151.8,32.3 M62.3,5.8h2.7
		v11.8h-2.7V5.8z M54.6,5.8v9.5h5.4v2.3h-8V5.8H54.6z M102,22.8l-4.5,11.8h-3L90,22.8h2.9L96,32l3.1-9.2H102z M67.7,11.7
		c0-3.6,2.5-6.1,6-6.1c2.6,0,3.9,1.1,4.2,1.4L76.4,9c-0.3-0.3-1.2-0.9-2.6-0.9c-1.9,0-3.2,1.5-3.2,3.6c0,2.1,1.4,3.6,3.2,3.6
		c1.6,0,2.6-0.9,2.6-2.3v-0.3h-2.7v-2h5.7v1.6c0,3.4-2.2,5.5-5.6,5.5C70.2,17.8,67.7,15.3,67.7,11.7 M104.2,8h-3.4v9.5h-2.7V8h-3.4
		V5.8h9.4V8z M57.3,34.8c-3.6,0-6.1-2.5-6.1-6.2c0-3.6,2.5-6.1,6.1-6.1c2.4,0,3.6,1.1,3.9,1.3l-1.5,2c-0.3-0.2-1.1-0.8-2.4-0.8
		c-2,0-3.3,1.5-3.3,3.6c0,2.1,1.4,3.6,3.3,3.6c1.3,0,2.1-0.6,2.4-0.8l1.5,2C61,33.8,59.7,34.8,57.3,34.8 M68.7,34.8
		c3.5,0,6.1-2.6,6.1-6.2c0-3.5-2.6-6.1-6.1-6.1c-3.4,0-6,2.6-6,6.1C62.6,32.2,65.2,34.8,68.7,34.8 M68.7,25.1c1.9,0,3.3,1.5,3.3,3.6
		c0,2.1-1.4,3.6-3.3,3.6c-1.9,0-3.3-1.5-3.3-3.6C65.4,26.6,66.8,25.1,68.7,25.1 M85.7,34.6l-5.9-7.2v7.2h-2.6V22.8h2.1l5.9,7.1v-7.1
		h2.6v11.8H85.7z"/>
</g>
</svg>
